<svg width="24" height="24" viewBox="0 0 24 24" fill="none" xmlns="http://www.w3.org/2000/svg">
<path d="M6.307 5.58105L6.698 7.25605H0C0 7.25605 0.112 7.75805 0.167 7.81405C0.335 8.09305 0.502 8.42805 0.726 8.65105C1.786 9.87905 3.628 10.3811 5.135 10.6601C6.195 10.8841 7.256 10.9401 8.316 10.9951L9.544 14.2881H10.214L10.605 15.3491H10.047L9.098 18.4191H18.419L17.47 15.3491H16.912L17.302 14.2881H17.972C17.972 14.2881 18.53 10.8841 20.26 9.32105C21.935 7.75805 24 7.53505 24 7.53505V5.58105H6.307ZM15.684 14.0091C15.237 14.2881 14.735 14.2881 14.4 14.5121C14.177 14.6231 14.065 14.9581 14.065 14.9581C13.842 14.4561 13.563 14.2881 13.228 14.1771C12.893 14.0651 12.279 14.1211 11.442 13.3951C10.884 12.8931 10.828 12.2231 10.884 11.8881V11.7211C10.884 11.6651 10.884 11.6091 10.94 11.5531C11.051 11.2191 11.33 10.8841 11.888 10.6601C11.888 10.6601 11.498 11.2191 11.888 11.7771C12.112 12.1121 12.558 12.2791 12.949 12.0561C13.116 11.9441 13.228 11.7211 13.284 11.5531C13.395 11.1631 13.395 10.7721 13.06 10.4931C12.558 10.0471 12.447 9.43305 12.781 9.04205C12.781 9.04205 12.893 9.54405 13.395 9.48805C13.73 9.48805 13.73 9.37706 13.619 9.26506C13.563 9.09806 12.837 8.03705 13.898 7.25605C13.898 7.25605 14.567 6.80905 15.349 6.86505C14.902 6.92105 14.4 7.20005 14.233 7.64705V7.70205C14.065 8.14905 14.177 8.65105 14.512 9.09805C14.735 9.43305 15.014 9.71205 15.126 10.1581C14.958 10.1021 14.847 10.1581 14.735 10.2701C14.6755 10.3375 14.634 10.4189 14.6144 10.5067C14.5949 10.5944 14.5978 10.6857 14.623 10.7721C14.679 10.8841 14.791 10.9951 14.902 10.9951H15.07C15.237 10.9401 15.349 10.7161 15.293 10.5491C15.405 10.6601 15.46 10.9401 15.405 11.1071C15.405 11.2741 15.293 11.4421 15.237 11.5531C15.181 11.6651 15.07 11.7771 15.014 11.8881C14.958 12.0001 14.902 12.1121 14.902 12.2231C14.902 12.3351 14.902 12.5021 14.958 12.6141C15.181 12.9491 15.628 12.6141 15.74 12.3351C15.907 12.0001 15.851 11.6091 15.628 11.2741C15.628 11.2741 16.019 11.4981 16.298 12.2791C16.521 12.9491 16.13 13.7301 15.684 14.0091Z" fill="#F05600"/>
</svg>
