<svg width="13" height="18" viewBox="0 0 13 18" fill="none" xmlns="http://www.w3.org/2000/svg">
<path d="M5.2 1.03524L5.74167 0.297763C5.87708 0.110795 6.09375 0 6.32057 0C6.71667 0 7.04167 0.332386 7.04167 0.737482V1.50613C7.04167 1.95969 7.22448 2.39595 7.54609 2.70756L10.4135 5.50515C12.0656 7.11861 13 9.35529 13 11.6924C13 15.0266 10.3594 17.7273 7.09922 17.7273H6.5C2.91146 17.7273 0 14.7496 0 11.0795V10.948C0 9.25834 0.656771 7.63796 1.82474 6.44345L1.94323 6.32227C2.08542 6.17685 2.28177 6.09375 2.4849 6.09375C2.90807 6.09375 3.25 6.44345 3.25 6.87624V9.97159C3.25 11.1938 4.22161 12.1875 5.41667 12.1875C6.61172 12.1875 7.58333 11.1938 7.58333 9.97159V9.83656C7.58333 9.21333 7.33958 8.61435 6.90964 8.17463L5.60286 6.83816C4.79036 6.00719 4.33333 4.875 4.33333 3.6978C4.33333 2.73873 4.63802 1.80043 5.2 1.03524Z" fill="#DDDDDD"/>
</svg>
