<svg width="30" height="30" viewBox="0 0 30 30" fill="none" xmlns="http://www.w3.org/2000/svg">
<path fill-rule="evenodd" clip-rule="evenodd" d="M1.47559 21.5596L11.0477 15.8218L10.1754 13.5114L12.9092 10.7067L16.3642 9.96299L17.3646 11.1929L15.7717 12.8042L14.3832 13.2411L13.3903 14.2597L13.8766 15.6109L14.8633 16.6574L16.2548 16.2876L17.2451 15.2015L19.4072 14.5172L20.0516 15.965L17.8204 18.6971L14.0821 19.8792L12.4052 18.0148L2.80103 23.7715C2.34531 23.1858 1.81483 22.3562 1.47559 21.5596ZM29.0948 9.86292L21.491 11.9112C21.9101 13.0247 22.0479 13.679 22.1639 14.4004L29.7539 12.3552C29.6329 11.5454 29.4157 10.7209 29.0948 9.86292Z" fill="#30B27C"/>
<path fill-rule="evenodd" clip-rule="evenodd" d="M2.60816 16.0594C3.14679 22.4095 8.48467 27.4031 14.9812 27.4031C19.8898 27.4031 24.1372 24.5522 26.1518 20.4201L28.6242 21.2751C26.2449 26.4232 21.0281 30 14.9812 30C7.04937 30 0.544724 23.8446 0 16.0594H2.60816ZM0.0396718 13.4742C0.806659 5.9111 7.20856 0 14.9817 0C23.2705 0 30 6.72136 30 15.0003C30 16.3282 29.8271 17.616 29.5016 18.8423L27.0358 17.9898C27.2781 17.0118 27.4002 16.0078 27.3995 15.0003C27.3995 8.15494 21.8352 2.59741 14.9817 2.59741C8.64539 2.59741 3.41126 7.34722 2.65699 13.4742H0.040689H0.0396718Z" fill="#30B27C"/>
<path fill-rule="evenodd" clip-rule="evenodd" d="M14.9412 7.78101C10.9491 7.78457 7.70869 11.0236 7.70869 15.0119C7.70869 19.0028 10.9531 22.2428 14.9488 22.2428C15.1512 22.2428 15.3521 22.2347 15.5505 22.2179L16.2737 24.7457C15.8346 24.8048 15.3919 24.8343 14.9488 24.8341C9.52088 24.8341 5.11426 20.4328 5.11426 15.0119C5.11426 9.59051 9.52088 5.1897 14.9488 5.1897C15.0831 5.1897 15.2173 5.19224 15.3506 5.19783L14.9412 7.78101ZM17.9013 5.6408C21.8883 6.89404 24.7828 10.6182 24.7828 15.0119C24.7828 19.0795 22.3023 22.5725 18.771 24.0635L18.0503 21.5463C20.4957 20.3855 22.1884 17.8943 22.1884 15.0119C22.1884 11.9136 20.2333 9.26793 17.4893 8.23923L17.9013 5.6408Z" fill="#30B27C"/>
</svg>
