<svg width="66" height="66" viewBox="0 0 66 66" fill="none" xmlns="http://www.w3.org/2000/svg">
<path d="M22.6197 37.045C20.1311 39.4981 19.7519 44.9375 19.7401 45.1627L19.6927 45.8381L20.3681 45.8026L28.5332 43.0296C30.8559 40.7424 31.1284 38.2538 29.2797 36.3814C27.4311 34.509 24.9424 34.7579 22.6197 37.045Z" fill="#00A8FF"/>
<path d="M65.9334 0.841654L65.8624 0.178024L65.1987 0.0950722C65.0447 0.0713711 61.454 -0.331548 56.3464 0.723149C51.6417 1.69489 44.7091 4.1598 38.4165 10.3695C36.2834 12.467 34.3281 14.7779 32.5624 17.1243L25.7838 18.2738C23.9233 18.5938 22.3472 19.8025 21.5769 21.5208L17.8321 29.8044C17.6544 30.2073 17.7018 30.6813 17.9743 31.0368C18.0099 31.0724 18.0336 31.1079 18.0691 31.1435C18.3417 31.416 18.7328 31.5464 19.1238 31.4871L25.0017 30.4917L35.0036 40.6357L33.9252 46.4899C33.8541 46.881 33.9726 47.272 34.257 47.5565C34.2925 47.592 34.3281 47.6276 34.3636 47.6513C34.7191 47.9238 35.1813 47.9949 35.5961 47.8172L43.9152 44.1909C45.6453 43.4325 46.8778 41.8801 47.2215 40.0195L48.4658 33.2529C50.8359 31.5108 53.1704 29.591 55.2917 27.4935C61.5962 21.2838 64.144 14.3868 65.1869 9.694C66.3127 4.58642 65.9453 0.995711 65.9334 0.841654ZM53.7748 19.8499C51.6062 21.983 48.1221 21.9593 45.989 19.7907C43.8559 17.622 43.8796 14.138 46.0483 12.0049C48.2169 9.87176 51.701 9.89546 53.8341 12.0641C55.9553 14.2209 55.9316 17.7168 53.7748 19.8499ZM13.1275 38.9648L4.70174 47.2839C4.09737 47.8764 4.08552 48.86 4.68989 49.4644C5.28242 50.0688 6.26601 50.0806 6.87039 49.4762L15.2961 41.1572C15.9005 40.5646 15.9123 39.5811 15.308 38.9767C14.7154 38.3723 13.7437 38.3723 13.1275 38.9648ZM11.338 52.2967L0.459252 63.0333C-0.145125 63.6258 -0.156976 64.6094 0.447401 65.2138C1.05178 65.8181 2.02352 65.83 2.6279 65.2256L13.5067 54.489C14.1111 53.8965 14.1229 52.9129 13.5185 52.3085C12.9142 51.7041 11.9424 51.6923 11.338 52.2967ZM22.5486 51.799L16.6234 57.6413C16.019 58.2338 16.0072 59.2174 16.6115 59.8218C17.2041 60.4261 18.1876 60.438 18.792 59.8336L24.7173 53.9913C25.3217 53.3988 25.3335 52.4152 24.7291 51.8108C24.1248 51.2183 23.153 51.2064 22.5486 51.799Z" fill="#00A8FF"/>
</svg>
